<svg width="23" height="18" viewBox="0 0 23 18" fill="none" xmlns="http://www.w3.org/2000/svg">
<path d="M21.0727 15.2814C21.722 15.2814 22.2949 15.8506 22.2949 16.4957C22.2949 17.1787 21.722 17.71 21.0727 17.71H1.51714C0.829644 17.71 0.294922 17.1787 0.294922 16.4957C0.294922 15.8506 0.829644 15.2814 1.51714 15.2814H21.0727Z" fill="url(#paint0_linear_338_3876)"/>
<path d="M12.1543 13.7256L15.821 10.0827C16.3175 9.62737 16.3175 8.8305 15.821 8.37514C15.3626 7.88184 14.5605 7.88184 14.1022 8.37514L12.5362 9.93094C12.5362 9.93094 12.5362 2.56934 12.5362 1.92425C12.5362 1.27916 11.9633 0.709961 11.314 0.709961C10.6265 0.709961 10.0918 1.27916 10.0918 1.92425V9.93094L8.48763 8.37514C8.0293 7.88184 7.22721 7.88184 6.76888 8.37514C6.27235 8.8305 6.27235 9.62737 6.76888 10.0827L10.4355 13.7256C10.8939 14.2189 11.696 14.2189 12.1543 13.7256Z" fill="url(#paint1_linear_338_3876)"/>
<path d="M12.1543 13.7256L15.821 10.0827C16.3175 9.62737 16.3175 8.8305 15.821 8.37514C15.3626 7.88184 14.5605 7.88184 14.1022 8.37514L12.5362 9.93094C12.5362 9.93094 12.5362 2.56934 12.5362 1.92425C12.5362 1.27916 11.9633 0.709961 11.314 0.709961C10.6265 0.709961 10.0918 1.27916 10.0918 1.92425V9.93094L8.48763 8.37514C8.0293 7.88184 7.22721 7.88184 6.76888 8.37514C6.27235 8.8305 6.27235 9.62737 6.76888 10.0827L10.4355 13.7256C10.8939 14.2189 11.696 14.2189 12.1543 13.7256Z" fill="url(#paint2_linear_338_3876)"/>
<path d="M12.0757 13.7256L15.7424 10.0827C16.2389 9.62737 16.2389 8.8305 15.7424 8.37514C15.284 7.88184 14.4819 7.88184 14.0236 8.37514L12.4576 9.93094C12.4576 9.93094 12.4576 2.56934 12.4576 1.92425C12.4576 1.27916 11.8847 0.709961 11.2354 0.709961C10.5479 0.709961 10.0132 1.27916 10.0132 1.92425V9.93094L8.40902 8.37514C7.95069 7.88184 7.1486 7.88184 6.69027 8.37514C6.19374 8.8305 6.19374 9.62737 6.69027 10.0827L10.3569 13.7256C10.8153 14.2189 11.6174 14.2189 12.0757 13.7256Z" fill="url(#paint3_linear_338_3876)"/>
<path d="M12.0757 13.7256L15.7424 10.0827C16.2389 9.62737 16.2389 8.8305 15.7424 8.37514C15.284 7.88184 14.4819 7.88184 14.0236 8.37514L12.4576 9.93094C12.4576 9.93094 12.4576 2.56934 12.4576 1.92425C12.4576 1.27916 11.8847 0.709961 11.2354 0.709961C10.5479 0.709961 10.0132 1.27916 10.0132 1.92425V9.93094L8.40902 8.37514C7.95069 7.88184 7.1486 7.88184 6.69027 8.37514C6.19374 8.8305 6.19374 9.62737 6.69027 10.0827L10.3569 13.7256C10.8153 14.2189 11.6174 14.2189 12.0757 13.7256Z" fill="url(#paint4_linear_338_3876)"/>
<defs>
<linearGradient id="paint0_linear_338_3876" x1="-10.6614" y1="8.85311" x2="-10.6614" y2="23.3761" gradientUnits="userSpaceOnUse">
<stop stop-color="#92D3CD"/>
<stop offset="0.298077" stop-color="#76C6D3"/>
<stop offset="0.673077" stop-color="#62BDE1"/>
<stop offset="1" stop-color="#4DA5E4"/>
</linearGradient>
<linearGradient id="paint1_linear_338_3876" x1="-10.6614" y1="8.85311" x2="-10.6614" y2="23.3761" gradientUnits="userSpaceOnUse">
<stop stop-color="#92D3CD"/>
<stop offset="0.298077" stop-color="#76C6D3"/>
<stop offset="0.673077" stop-color="#62BDE1"/>
<stop offset="1" stop-color="#4DA5E4"/>
</linearGradient>
<linearGradient id="paint2_linear_338_3876" x1="-10.6614" y1="8.85311" x2="-10.6614" y2="23.3761" gradientUnits="userSpaceOnUse">
<stop stop-color="#92D3CD"/>
<stop offset="0.298077" stop-color="#76C6D3"/>
<stop offset="0.673077" stop-color="#62BDE1"/>
<stop offset="1" stop-color="#4DA5E4"/>
</linearGradient>
<linearGradient id="paint3_linear_338_3876" x1="-10.6614" y1="8.85311" x2="-10.6614" y2="23.3761" gradientUnits="userSpaceOnUse">
<stop stop-color="#92D3CD"/>
<stop offset="0.298077" stop-color="#76C6D3"/>
<stop offset="0.673077" stop-color="#62BDE1"/>
<stop offset="1" stop-color="#4DA5E4"/>
</linearGradient>
<linearGradient id="paint4_linear_338_3876" x1="-10.6614" y1="8.85311" x2="-10.6614" y2="23.3761" gradientUnits="userSpaceOnUse">
<stop stop-color="#92D3CD"/>
<stop offset="0.298077" stop-color="#76C6D3"/>
<stop offset="0.673077" stop-color="#62BDE1"/>
<stop offset="1" stop-color="#4DA5E4"/>
</linearGradient>
</defs>
</svg>
